HIERARCHY
ROOT Hips
{
	OFFSET 0.000000 0.000000 0.000000
	CHANNELS 6 Xposition Yposition Zposition Zrotation Yrotation Xrotation 
	JOINT LeftUpLeg_virtual
	{
		OFFSET 0.000000 0.000000 0.000000
		CHANNELS 3 Zrotation Yrotation Xrotation
		JOINT LeftUpLeg
		{
			OFFSET 10.205400 -3.823500 0.155100
			CHANNELS 3 Zrotation Yrotation Xrotation
			JOINT LeftLeg
			{
				OFFSET 0.708757 -12.982077 0.567790
				CHANNELS 3 Zrotation Yrotation Xrotation
				JOINT LeftFoot
				{
					OFFSET -0.708756 -10.717838 -2.184338
					CHANNELS 3 Zrotation Yrotation Xrotation
					JOINT LeftToeBase
					{
						OFFSET 0.108149 -7.191104 7.560241
						CHANNELS 3 Zrotation Yrotation Xrotation
						End Site
						{
							OFFSET 0.000000 0.000000 0.000000
						}
					}
				}
			}
		}
	}
	JOINT RightUpLeg_virtual
	{
		OFFSET 0.000000 0.000000 0.000000
		CHANNELS 3 Zrotation Yrotation Xrotation
		JOINT RightUpLeg
		{
			OFFSET -10.205400 -3.823500 0.005500
			CHANNELS 3 Zrotation Yrotation Xrotation
			JOINT RightLeg
			{
				OFFSET -0.708756 -12.982134 0.610632
				CHANNELS 3 Zrotation Yrotation Xrotation
				JOINT RightFoot
				{
					OFFSET 0.708754 -10.717769 -1.945823
					CHANNELS 3 Zrotation Yrotation Xrotation
					JOINT RightToeBase
					{
						OFFSET -0.108140 -7.191069 7.372968
						CHANNELS 3 Zrotation Yrotation Xrotation
						End Site
						{
							OFFSET 0.000000 0.000000 0.000000
						}
					}
				}
			}
		}
	}
	JOINT Spine_virtual
	{
		OFFSET 0.000000 0.000000 0.000000
		CHANNELS 3 Zrotation Yrotation Xrotation
		JOINT Spine
		{
			OFFSET 0.000000 6.876099 0.125700
			CHANNELS 3 Zrotation Yrotation Xrotation
			JOINT Spine1
			{
				OFFSET 0.000000 8.022060 0.146608
				CHANNELS 3 Zrotation Yrotation Xrotation
				JOINT Spine2
				{
					OFFSET 0.000000 9.168068 0.167552
					CHANNELS 3 Zrotation Yrotation Xrotation
					JOINT Neck_virtual
					{
						OFFSET 0.000000 0.000000 0.000000
						CHANNELS 3 Zrotation Yrotation Xrotation
						JOINT Neck
						{
							OFFSET 0.000000 10.314075 0.188496
							CHANNELS 3 Zrotation Yrotation Xrotation
							JOINT Head
							{
								OFFSET 0.000000 7.643700 -2.377400
								CHANNELS 3 Zrotation Yrotation Xrotation
								End Site
								{
									OFFSET 0.000000 0.000000 0.000000
								}
							}
						}
					}
					JOINT LeftShoulder_virtual
					{
						OFFSET 0.000000 0.000000 0.000000
						CHANNELS 3 Zrotation Yrotation Xrotation
						JOINT LeftShoulder
						{
							OFFSET 4.392200 8.824978 0.174984
							CHANNELS 3 Zrotation Yrotation Xrotation
							JOINT LeftArm
							{
								OFFSET 8.771219 -2.981674 -0.026999
								CHANNELS 3 Zrotation Yrotation Xrotation
								JOINT LeftForeArm
								{
									OFFSET 8.512804 0.000000 -0.000000
									CHANNELS 3 Zrotation Yrotation Xrotation
									JOINT LeftHand
									{
										OFFSET 18.484802 0.000000 -0.000000
										CHANNELS 3 Zrotation Yrotation Xrotation
										End Site
										{
											OFFSET 0.000000 0.000000 0.000000
										}
									}
								}
							}
						}
					}
					JOINT RightShoulder_virtual
					{
						OFFSET 0.000000 0.000000 0.000000
						CHANNELS 3 Zrotation Yrotation Xrotation
						JOINT RightShoulder
						{
							OFFSET -4.392200 8.824993 0.141379
							CHANNELS 3 Zrotation Yrotation Xrotation
							JOINT RightArm
							{
								OFFSET -8.771282 -2.981682 -0.094208
								CHANNELS 3 Zrotation Yrotation Xrotation
								JOINT RightForeArm
								{
									OFFSET -8.494598 0.000000 0.000000
									CHANNELS 3 Zrotation Yrotation Xrotation
									JOINT RightHand
									{
										OFFSET -18.483803 0.000000 0.000001
										CHANNELS 3 Zrotation Yrotation Xrotation
										End Site
										{
											OFFSET 0.000000 0.000000 0.000000
										}
									}
								}
							}
						}
					}
				}
			}
		}
	}
}
MOTION
Frames: 4
Frame Time: 0.033333
-3.560603 35.857716 12.163242 179.946716 2.879035 -179.825057 -3.322608 -3.590548 10.763844 -15.365941 1.879566 -19.423784 18.203639 6.003426 21.503420 2.049163 -3.660744 3.212940 0.000000 0.000000 0.000000 0.947751 -0.908243 9.472848 1.523488 1.843112 -11.865296 -7.713776 0.431044 15.787752 6.696402 1.645695 4.819822 0.000000 0.000000 0.000000 1.136527 0.652993 -1.881160 -3.942900 2.020290 -4.058146 0.547240 -3.821157 2.618999 0.016374 0.016818 0.063094 0.402442 -2.468095 4.834041 1.546790 1.008654 14.726690 0.000000 0.000000 0.000000 1.872667 -1.651915 1.581705 -8.468263 1.315543 -6.084889 1.630091 10.577181 -41.464794 -1.388634 -44.711351 -2.910230 0.000000 0.000000 0.000000 -1.665695 -0.919973 1.038761 17.855474 -4.145974 -14.631853 10.959191 -14.123843 -52.707310 -2.163952 27.910373 3.097383 0.000000 0.000000 0.000000 
-3.565277 35.853683 12.152673 179.931047 3.031290 -179.661077 -3.378759 -3.636706 10.942184 -15.197678 1.373567 -19.155187 18.404829 5.588091 21.642173 1.932726 -3.745410 3.185308 0.000000 0.000000 0.000000 1.024713 -0.703014 9.432321 1.430136 1.727799 -11.880748 -7.817666 0.193890 15.950858 6.554119 1.491595 4.942197 0.000000 0.000000 0.000000 1.117101 0.631587 -1.972640 -3.954736 2.005091 -4.148983 0.508285 -3.812727 2.541638 -0.029192 0.010152 0.035104 0.425447 -2.533844 4.851260 1.532198 1.012729 14.742478 0.000000 0.000000 0.000000 1.912798 -1.543462 1.598446 -8.493314 1.434529 -6.114215 1.660374 10.642039 -41.466061 -1.407239 -44.709448 -2.899182 0.000000 0.000000 0.000000 -1.632873 -0.816925 1.166728 17.887133 -4.035896 -14.701627 10.877632 -14.206432 -52.699199 -2.098972 28.024710 3.154750 0.000000 0.000000 0.000000 
-3.572974 35.850479 12.154423 179.880053 3.071623 -179.677989 -3.423049 -3.612928 10.950581 -15.223689 1.366704 -19.178031 18.441162 5.667540 21.684404 1.900796 -3.766714 3.217104 0.000000 0.000000 0.000000 0.961693 -0.680107 9.423147 1.420091 1.742173 -11.899506 -7.836161 0.242684 16.002711 6.545979 1.504813 4.928863 0.000000 0.000000 0.000000 1.089906 0.619594 -1.980916 -3.968847 1.997566 -4.191873 0.470657 -3.807400 2.560144 -0.005372 0.005671 0.045651 0.377503 -2.488348 4.843949 1.520218 1.020738 14.822863 0.000000 0.000000 0.000000 1.865047 -1.513273 1.577443 -8.510975 1.565707 -6.170521 1.666073 10.707662 -41.572886 -1.411848 -44.606828 -2.912134 0.000000 0.000000 0.000000 -1.684982 -0.780874 1.169968 17.914174 -4.101115 -14.781018 10.860424 -14.308591 -52.717254 -2.043629 28.169575 3.142410 0.000000 0.000000 0.000000 
-3.580109 35.847721 12.168468 179.954133 2.924094 -179.677169 -3.356377 -3.774743 10.946281 -15.230333 1.381629 -19.210412 18.411253 5.622342 21.758129 1.911313 -3.748621 3.232889 0.000000 0.000000 0.000000 1.042880 -0.848763 9.443312 1.392427 1.719013 -11.935369 -7.820182 0.241253 15.979682 6.571836 1.543956 4.924765 0.000000 0.000000 0.000000 1.131871 0.661489 -1.962832 -3.918345 2.032050 -4.270659 0.438539 -3.758564 2.602977 0.015368 0.037029 0.031332 0.301381 -2.459338 4.920077 1.470658 0.986974 14.985718 0.000000 0.000000 0.000000 1.765547 -1.609465 1.668345 -8.568624 1.520273 -6.296973 1.671006 10.790276 -41.712993 -1.442100 -44.516881 -2.895261 0.000000 0.000000 0.000000 -1.781019 -0.884003 1.140672 17.994084 -4.300336 -14.745231 10.691794 -14.431360 -52.834464 -1.944996 28.199076 3.113537 0.000000 0.000000 0.000000 
